<?xml version="1.0" encoding="utf-8"?>
<!-- Generator: Adobe Illustrator 20.1.0, SVG Export Plug-In . SVG Version: 6.00 Build 0)  -->
<svg version="1.1" id="Layer_1" xmlns="http://www.w3.org/2000/svg" xmlns:xlink="http://www.w3.org/1999/xlink" x="0px" y="0px"
	 viewBox="0 0 841.9 595.3" style="enable-background:new 0 0 841.9 595.3;" xml:space="preserve">
<style type="text/css">
	.st0{clip-path:url(#SVGID_2_);fill:none;stroke:#FCD19C;stroke-width:15;stroke-dasharray:70.417,70.417;}
	.st1{clip-path:url(#SVGID_2_);fill:none;stroke:#FCD19C;stroke-width:15;}
</style>
<g>
	<defs>
		<rect id="SVGID_1_" x="242" y="121.7" width="373.6" height="373.6"/>
	</defs>
	<clipPath id="SVGID_2_">
		<use xlink:href="#SVGID_1_"  style="overflow:visible;"/>
	</clipPath>
	<path class="st0" d="M528.4,457.6c29.3-19.6,52.4-47.6,66.1-80.5"/>
	<path class="st0" d="M577.9,208.9c-19.6-29.3-47.6-52.4-80.5-66.1"/>
	<path class="st0" d="M329.2,159.4c-29.3,19.6-52.4,47.6-66.1,80.5"/>
	<path class="st0" d="M279.7,408.1c19.6,29.3,47.6,52.4,80.5,66.1"/>
	<path class="st1" d="M393.8,484.4c11.3,2.2,23,3.4,35,3.4c12,0,23.7-1.2,35-3.4 M252.9,273.5c-2.2,11.3-3.4,23-3.4,35
		c0,12,1.2,23.7,3.4,35 M463.8,132.6c-11.3-2.2-23-3.4-35-3.4c-12,0-23.7,1.2-35,3.4 M604.7,343.5c2.2-11.3,3.4-23,3.4-35
		c0-12-1.2-23.7-3.4-35"/>
</g>
</svg>
