<?xml version="1.0" encoding="utf-8"?>
<!-- Generator: Adobe Illustrator 20.1.0, SVG Export Plug-In . SVG Version: 6.00 Build 0)  -->
<svg version="1.1" id="Layer_1" xmlns="http://www.w3.org/2000/svg" xmlns:xlink="http://www.w3.org/1999/xlink" x="0px" y="0px"
	 viewBox="0 0 841.9 595.3" style="enable-background:new 0 0 841.9 595.3;" xml:space="preserve">
<style type="text/css">
	.st0{clip-path:url(#SVGID_2_);fill:none;stroke:#FCD19C;stroke-width:7.95;}
</style>
<g>
	<defs>
		<rect id="SVGID_1_" x="293" y="172.5" width="270.8" height="270.8"/>
	</defs>
	<clipPath id="SVGID_2_">
		<use xlink:href="#SVGID_1_"  style="overflow:visible;"/>
	</clipPath>
	<path class="st0" d="M428.4,428.3c13.8-15.6,40.5-22.7,60.2-16.1c22.1,2.8,46.9-22,44.1-44.1c-6.6-19.8,0.6-46.4,16.1-60.2
		c13.5-17.7,4.4-51.7-16.1-60.2c-20.3-4.1-40-23.7-44.1-44.1c-8.5-20.5-42.6-29.6-60.2-16.1c-13.8,15.6-40.5,22.7-60.2,16.1
		c-22.1-2.8-46.9,22-44.1,44.1c6.6,19.8-0.6,46.4-16.1,60.2c-13.5,17.7-4.4,51.7,16.1,60.2c20.3,4.1,40,23.7,44.1,44.1
		C376.7,432.7,410.8,441.8,428.4,428.3"/>
</g>
</svg>
