<?xml version="1.0" encoding="utf-8"?>
<!-- Generator: Adobe Illustrator 20.1.0, SVG Export Plug-In . SVG Version: 6.00 Build 0)  -->
<svg version="1.1" id="Layer_1" xmlns="http://www.w3.org/2000/svg" xmlns:xlink="http://www.w3.org/1999/xlink" x="0px" y="0px"
	 viewBox="0 0 841.9 595.3" style="enable-background:new 0 0 841.9 595.3;" xml:space="preserve">
<style type="text/css">
	.st0{clip-path:url(#SVGID_2_);fill:none;stroke:#FCD19C;stroke-width:7.95;}
</style>
<g>
	<defs>
		<rect id="SVGID_1_" x="39" y="56.5" width="443" height="448.8"/>
	</defs>
	<clipPath id="SVGID_2_">
		<use xlink:href="#SVGID_1_"  style="overflow:visible;"/>
	</clipPath>
	<path class="st0" d="M260.5,490.3c13.8-15.2,40.9-19.1,58.6-8.5c19.2,8.9,48.1-4.5,53.6-25c3.2-20.2,23.8-38.5,44.3-39.2
		c21.1-3,37.9-29.7,31.6-50.1c-8.2-18.8-0.6-45.3,16.3-56.9c16.2-13.8,16.2-45.4,0-59.2c-16.9-11.6-24.5-38.1-16.3-56.9
		c6.3-20.3-10.5-47.1-31.6-50.1c-20.5-0.7-41.2-19-44.3-39.2c-5.5-20.5-34.4-34-53.6-25c-17.6,10.6-44.8,6.6-58.6-8.5
		C244.6,57.4,213,62,201.9,80c-8.9,18.5-33.8,30.1-53.6,25c-21-3-44.8,18-44.3,39.2c2.6,20.3-12.2,43.8-31.6,50.1
		C53,203.1,44.3,233.7,56,251.3c13.1,15.8,13.1,43.4,0,59.2c-11.8,17.6-3,48.2,16.3,56.9c19.4,6.3,34.2,29.8,31.6,50.1
		c-0.5,21.2,23.3,42.3,44.3,39.2c19.8-5.1,44.8,6.5,53.6,25C213,499.8,244.6,504.4,260.5,490.3"/>
</g>
</svg>
