<?xml version="1.0" encoding="utf-8"?>
<!-- Generator: Adobe Illustrator 20.1.0, SVG Export Plug-In . SVG Version: 6.00 Build 0)  -->
<svg version="1.1" id="Layer_1" xmlns="http://www.w3.org/2000/svg" xmlns:xlink="http://www.w3.org/1999/xlink" x="0px" y="0px"
	 viewBox="0 0 841.9 595.3" style="enable-background:new 0 0 841.9 595.3;" xml:space="preserve">
<style type="text/css">
	.st0{clip-path:url(#SVGID_2_);fill:none;stroke:#FCD19C;stroke-width:15;stroke-dasharray:41.178,26.178;}
	.st1{clip-path:url(#SVGID_2_);fill:none;stroke:#FCD19C;stroke-width:15;}
</style>
<g>
	<defs>
		<rect id="SVGID_1_" x="335" y="214.8" width="186.5" height="186.5"/>
	</defs>
	<clipPath id="SVGID_2_">
		<use xlink:href="#SVGID_1_"  style="overflow:visible;"/>
	</clipPath>
	<path class="st0" d="M472.7,381.4c15.5-9.4,27.7-23.6,34.8-40.5"/>
	<path class="st0" d="M501.6,263.6c-9.4-15.5-23.6-27.7-40.5-34.8"/>
	<path class="st0" d="M383.8,234.7c-15.5,9.4-27.7,23.6-34.8,40.5"/>
	<path class="st0" d="M354.9,352.5c9.4,15.5,23.6,27.7,40.5,34.8"/>
	<path class="st1" d="M407.9,391.3c6.5,1.6,13.4,2.4,20.4,2.4c7,0,13.9-0.8,20.4-2.4 M344.9,287.6c-1.6,6.5-2.4,13.4-2.4,20.4
		c0,7,0.8,13.9,2.4,20.4 M448.6,224.7c-6.5-1.6-13.4-2.4-20.4-2.4c-7,0-13.9,0.8-20.4,2.4 M511.6,328.4c1.6-6.5,2.4-13.4,2.4-20.4
		c0-7-0.8-13.9-2.4-20.4"/>
</g>
</svg>
