<?xml version="1.0" encoding="utf-8"?>
<!-- Generator: Adobe Illustrator 20.1.0, SVG Export Plug-In . SVG Version: 6.00 Build 0)  -->
<svg version="1.1" id="Layer_1" xmlns="http://www.w3.org/2000/svg" xmlns:xlink="http://www.w3.org/1999/xlink" x="0px" y="0px"
	 viewBox="0 0 841.9 595.3" style="enable-background:new 0 0 841.9 595.3;" xml:space="preserve">
<style type="text/css">
	.st0{clip-path:url(#SVGID_2_);fill:#FCD19C;}
	.st1{clip-path:url(#SVGID_2_);fill:none;stroke:#000000;stroke-width:3;stroke-dasharray:7.623,4.623;}
	.st2{clip-path:url(#SVGID_2_);fill:none;stroke:#000000;stroke-width:3;}
</style>
<g>
	<defs>
		<rect id="SVGID_1_" x="356" y="291.1" width="146.2" height="34.2"/>
	</defs>
	<clipPath id="SVGID_2_">
		<use xlink:href="#SVGID_1_"  style="overflow:visible;"/>
	</clipPath>
	<path class="st0" d="M377.4,323.2c8.3-2.4,13.1-11,10.7-19.3c-2.4-8.3-11-13.1-19.3-10.7c-8.3,2.4-13.1,11-10.7,19.3
		C360.5,320.8,369.1,325.5,377.4,323.2"/>
	<path class="st1" d="M384.5,318.8c2.3-2.4,3.7-5.5,4.1-8.9"/>
	<path class="st1" d="M383.7,296.8c-2.4-2.3-5.5-3.7-8.9-4.1"/>
	<path class="st1" d="M361.7,297.5c-2.3,2.4-3.7,5.5-4.1,8.9"/>
	<path class="st1" d="M362.5,319.6c2.4,2.3,5.5,3.7,8.9,4.1"/>
	<path class="st2" d="M373.6,323.8c1.2,0,2.5-0.2,3.8-0.6c1.3-0.4,2.4-0.9,3.5-1.5 M357.5,308.7c0,1.2,0.2,2.5,0.6,3.8
		c0.4,1.3,0.9,2.4,1.5,3.5 M372.6,292.6c-1.2,0-2.5,0.2-3.8,0.6s-2.4,0.9-3.5,1.5 M388.7,307.6c0-1.2-0.2-2.5-0.6-3.8
		c-0.4-1.3-0.9-2.4-1.5-3.5"/>
	<path class="st1" d="M437.1,321.6c2.8-1.7,5.1-4.3,6.4-7.4"/>
	<path class="st1" d="M442.4,300.2c-1.7-2.8-4.3-5.1-7.4-6.4"/>
	<path class="st1" d="M421,294.8c-2.8,1.7-5.1,4.3-6.4,7.4"/>
	<path class="st1" d="M415.7,316.2c1.7,2.8,4.3,5.1,7.4,6.4"/>
	<path class="st2" d="M425.3,323.3c1.2,0.3,2.5,0.5,3.8,0.5c1.3,0,2.6-0.2,3.8-0.5 M413.9,304.4c-0.3,1.2-0.5,2.5-0.5,3.8
		c0,1.3,0.2,2.6,0.5,3.8 M432.9,293.1c-1.2-0.3-2.5-0.5-3.8-0.5c-1.3,0-2.6,0.2-3.8,0.5 M444.2,312c0.3-1.2,0.5-2.5,0.5-3.8
		c0-1.3-0.2-2.6-0.5-3.8"/>
	<path class="st1" d="M488.6,323.4c3.2-0.7,6.2-2.5,8.4-5.1"/>
	<path class="st1" d="M500.3,304.7c-0.7-3.2-2.5-6.2-5.1-8.4"/>
	<path class="st1" d="M481.6,293c-3.2,0.7-6.2,2.5-8.4,5.1"/>
	<path class="st1" d="M469.9,311.7c0.7,3.2,2.5,6.2,5.1,8.4"/>
	<path class="st2" d="M476.8,321.4c1.1,0.7,2.2,1.2,3.4,1.6c1.2,0.4,2.5,0.6,3.7,0.7 M471.8,299.9c-0.7,1.1-1.2,2.2-1.6,3.4
		c-0.4,1.2-0.6,2.5-0.7,3.7 M493.3,295c-1.1-0.7-2.2-1.2-3.4-1.6c-1.2-0.4-2.5-0.6-3.7-0.7 M498.3,316.5c0.7-1.1,1.2-2.2,1.6-3.4
		c0.4-1.2,0.6-2.5,0.7-3.7"/>
</g>
</svg>
